<svg id="Layer_1" data-name="Layer 1" xmlns="http://www.w3.org/2000/svg" viewBox="0 0 52.43 69.7">
    <path fill="none" d="M17.1,18.71a3,3,0,1,0,0,6.07h3v-3A3.05,3.05,0,0,0,17.1,18.71Z" />
    <path fill="none" d="M35.33,18.71a3,3,0,0,0-3,3v3h3a3,3,0,0,0,0-6.07Z" />
    <path fill="none" d="M26.27,3.18a23,23,0,0,0-14.8,40.7,1.33,1.33,0,0,1,.26.21,16.13,16.13,0,0,1,4,8.33H36.68c.22-2.53.63-5.86,3.75-8.46,2.6-2.46,8.82-9.26,8.82-17.71A23.05,23.05,0,0,0,26.27,3.18Zm9.06,24.64h-3V44h-3V27.82H23.17V44h-3V27.82h-3a6.08,6.08,0,1,1,6.07-6.07v3h6.08v-3a6.08,6.08,0,1,1,6.08,6.07Z" />
    <path fill="#ef4444" d="M26.27,0A26.19,26.19,0,0,0,9.54,46.41h0a13.86,13.86,0,0,1,3.26,7.78,1.59,1.59,0,0,0,1.58,1.4H38.12a1.6,1.6,0,0,0,1.58-1.4c0-.38.08-.78.11-1.19.21-2.33.42-4.73,2.73-6.66,3-2.82,9.89-10.4,9.89-20.09A26.24,26.24,0,0,0,26.27,0ZM40.43,44c-3.12,2.6-3.53,5.93-3.75,8.46H15.76a16.13,16.13,0,0,0-4-8.33,1.33,1.33,0,0,0-.26-.21A23,23,0,1,1,49.25,26.26C49.25,34.71,43,41.51,40.43,44Z" />
    <path fill="#ef4444" d="M38.27,59.77H14.44a1.59,1.59,0,0,0,0,3.17H38.27a1.59,1.59,0,1,0,0-3.17Z" />
    <path fill="#ef4444" d="M31.92,66.52H20.8a1.59,1.59,0,1,0,0,3.18H31.92a1.59,1.59,0,0,0,0-3.18Z" />
    <path fill="#ef4444" d="M35.33,15.67a6.09,6.09,0,0,0-6.08,6.08v3H23.17v-3a6.07,6.07,0,1,0-6.07,6.07h3V44h3V27.82h6.08V44h3V27.82h3a6.08,6.08,0,0,0,0-12.15ZM20.14,24.78h-3a3,3,0,1,1,3-3Zm15.19,0h-3v-3a3,3,0,1,1,3,3Z" />
</svg>